<svg xmlns="http://www.w3.org/2000/svg" width="512" height="512" viewBox="0 0 512 512">
<g>
<path d="M 512.00,389.00 L 492.00,389.00 L 492.00,410.00 L 451.00,410.00 L 451.00,430.00 L 410.00,430.00 L 410.00,451.00 L 369.00,451.00 L 369.00,471.00 L 328.00,471.00 L 328.00,492.00 L 287.00,492.00 L 287.00,512.00 L 225.00,512.00 L 225.00,492.00 L 184.00,492.00 L 184.00,471.00 L 143.00,471.00 L 143.00,451.00 L 102.00,451.00 L 102.00,430.00 L 61.00,430.00 L 61.00,410.00 L 20.00,410.00 L 20.00,389.00 L 0.00,389.00 L 0.00,123.00 L 20.00,123.00 L 20.00,102.00 L 61.00,102.00 L 61.00,82.00 L 102.00,82.00 L 102.00,61.00 L 143.00,61.00 L 143.00,41.00 L 184.00,41.00 L 184.00,20.00 L 225.00,20.00 L 225.00,0.00 L 287.00,0.00 L 287.00,20.00 L 225.00,20.00 L 225.00,41.00 L 184.00,41.00 L 184.00,61.00 L 143.00,61.00 L 143.00,82.00 L 102.00,82.00 L 102.00,102.00 L 61.00,102.00 L 61.00,123.00 L 20.00,123.00 L 20.00,164.00 L 61.00,164.00 L 61.00,184.00 L 102.00,184.00 L 102.00,205.00 L 143.00,205.00 L 143.00,225.00 L 184.00,225.00 L 184.00,246.00 L 225.00,246.00 L 225.00,266.00 L 246.00,266.00 L 246.00,492.04 L 286.50,491.50 L 286.78,481.27 L 287.07,471.04 L 307.28,470.77 L 327.50,470.50 L 327.79,460.77 L 328.07,451.04 L 348.29,450.77 L 368.50,450.50 L 368.78,440.27 L 369.07,430.04 L 389.28,429.77 L 409.50,429.50 L 409.79,419.77 L 410.07,410.04 L 430.29,409.77 L 450.50,409.50 L 450.78,399.27 L 451.07,389.04 L 471.28,388.77 L 491.50,388.50 L 491.75,255.75 L 492.01,123.00 L 512.00,123.00 M 143.00,287.00 L 143.00,307.00 L 164.00,307.00 L 164.00,328.00 L 184.00,328.00 L 184.00,348.00 L 164.00,348.00 L 164.00,369.00 L 143.00,369.00 L 143.00,389.00 L 164.00,389.00 L 164.00,369.00 L 184.00,369.00 L 184.00,348.00 L 205.00,348.00 L 205.00,328.00 L 184.00,328.00 L 184.00,307.00 L 164.00,307.00 L 164.00,287.00 M 82.00,266.00 L 82.00,287.00 L 61.00,287.00 L 61.00,307.00 L 41.00,307.00 L 41.00,328.00 L 61.00,328.00 L 61.00,348.00 L 82.00,348.00 L 82.00,369.00 L 102.00,369.00 L 102.00,348.00 L 82.00,348.00 L 82.00,328.00 L 61.00,328.00 L 61.00,307.00 L 82.00,307.00 L 82.00,287.00 L 102.00,287.00 L 102.00,266.00 M 328.00,20.00 L 328.00,41.00 L 369.00,41.00 L 369.00,61.00 L 410.00,61.00 L 410.00,82.00 L 451.00,82.00 L 451.00,102.00 L 492.00,102.00 L 492.00,123.00 L 471.50,123.00 L 451.00,123.00 L 451.00,102.00 L 410.00,102.00 L 410.00,82.00 L 369.00,82.00 L 369.00,61.00 L 328.00,61.00 L 328.00,41.00 L 287.00,41.00 L 287.00,20.00 Z" fill="rgba(32,33,56,1)"/>
<path d="M 246.00,492.04 L 246.00,492.00 L 249.10,492.00 M 491.75,255.75 L 491.50,388.50 L 471.28,388.77 L 451.07,389.04 L 450.78,399.27 L 450.50,409.50 L 430.29,409.77 L 410.07,410.04 L 409.79,419.77 L 409.50,429.50 L 389.28,429.77 L 369.07,430.04 L 368.78,440.27 L 368.50,450.50 L 348.29,450.77 L 328.07,451.04 L 327.79,460.77 L 327.50,470.50 L 307.28,470.77 L 287.07,471.04 L 286.78,481.27 L 286.50,491.50 L 266.00,491.77 L 266.00,266.00 L 287.00,266.00 L 287.00,246.00 L 328.00,246.00 L 328.00,225.00 L 369.00,225.00 L 369.00,205.00 L 410.00,205.00 L 410.00,184.00 L 451.00,184.00 L 451.00,164.00 L 491.93,164.00 M 307.00,287.00 L 307.00,307.00 L 328.00,307.00 L 328.00,410.00 L 307.00,410.00 L 307.00,389.00 L 287.00,389.00 L 287.00,430.00 L 348.00,430.00 L 348.00,307.00 L 369.00,307.00 L 369.00,287.00 M 410.00,246.00 L 410.00,266.00 L 389.00,266.00 L 389.00,307.00 L 410.00,307.00 L 410.00,328.00 L 451.00,328.00 L 451.00,369.00 L 410.00,369.00 L 410.00,348.00 L 389.00,348.00 L 389.00,369.00 L 410.00,369.00 L 410.00,389.00 L 451.00,389.00 L 451.00,369.00 L 471.00,369.00 L 471.00,328.00 L 451.00,328.00 L 451.00,307.00 L 410.00,307.00 L 410.00,266.00 L 451.00,266.00 L 451.00,246.00 M 471.00,287.00 L 471.00,266.00 L 451.00,266.00 L 451.00,287.00 M 492.01,123.00 L 492.00,126.83 L 492.00,123.00 L 451.00,123.00 L 471.50,123.00 Z" fill="rgba(40,48,75,1)"/>
<path d="M 287.00,41.00 L 328.00,41.00 L 328.00,61.00 L 369.00,61.00 L 369.00,82.00 L 410.00,82.00 L 410.00,102.00 L 451.00,102.00 L 451.00,123.00 L 492.00,123.00 L 492.00,143.00 L 451.00,143.00 L 451.00,164.00 L 410.00,164.00 L 410.00,184.00 L 369.00,184.00 L 369.00,205.00 L 328.00,205.00 L 328.00,225.00 L 287.00,225.00 L 287.00,246.00 L 225.00,246.00 L 225.00,225.00 L 184.00,225.00 L 184.00,205.00 L 143.00,205.00 L 143.00,184.00 L 102.00,184.00 L 102.00,164.00 L 61.00,164.00 L 61.00,143.00 L 20.00,143.00 L 20.00,123.00 L 61.00,123.00 L 61.00,102.00 L 102.00,102.00 L 102.00,82.00 L 143.00,82.00 L 143.00,61.00 L 184.00,61.00 L 184.00,41.00 L 225.00,41.00 L 225.00,20.00 L 287.00,20.00 M 225.00,82.00 L 225.00,123.00 L 246.00,123.00 L 246.00,164.00 L 266.00,164.00 L 266.00,205.00 L 287.00,205.00 L 287.00,164.00 L 266.00,164.00 L 266.00,123.00 L 246.00,123.00 L 246.00,82.00 Z" fill="rgba(53,73,93,1)"/>
<path d="M 61.00,164.00 L 102.00,164.00 L 102.00,184.00 L 143.00,184.00 L 143.00,205.00 L 184.00,205.00 L 184.00,225.00 L 225.00,225.00 L 225.00,246.00 L 287.00,246.00 L 287.00,225.00 L 328.00,225.00 L 328.00,205.00 L 369.00,205.00 L 369.00,184.00 L 410.00,184.00 L 410.00,164.00 L 451.00,164.00 L 451.00,143.00 L 492.00,143.00 L 492.00,164.00 L 451.00,164.00 L 451.00,184.00 L 410.00,184.00 L 410.00,205.00 L 369.00,205.00 L 369.00,225.00 L 328.00,225.00 L 328.00,246.00 L 287.00,246.00 L 287.00,266.00 L 266.00,266.00 L 266.00,492.00 L 246.00,492.00 L 246.00,266.00 L 225.00,266.00 L 225.00,246.00 L 184.00,246.00 L 184.00,225.00 L 143.00,225.00 L 143.00,205.00 L 102.00,205.00 L 102.00,184.00 L 61.00,184.00 L 61.00,164.00 L 20.00,164.00 L 20.00,143.00 L 61.00,143.00 Z" fill="rgba(100,136,139,1)"/>
<path d="M 369.00,307.00 L 348.00,307.00 L 348.00,430.00 L 287.00,430.00 L 287.00,389.00 L 307.00,389.00 L 307.00,410.00 L 328.00,410.00 L 328.00,307.00 L 307.00,307.00 L 307.00,287.00 L 369.00,287.00 M 451.00,266.00 L 410.00,266.00 L 410.00,307.00 L 451.00,307.00 L 451.00,328.00 L 471.00,328.00 L 471.00,369.00 L 451.00,369.00 L 451.00,389.00 L 410.00,389.00 L 410.00,369.00 L 389.00,369.00 L 389.00,348.00 L 410.00,348.00 L 410.00,369.00 L 451.00,369.00 L 451.00,328.00 L 410.00,328.00 L 410.00,307.00 L 389.00,307.00 L 389.00,266.00 L 410.00,266.00 L 410.00,246.00 L 451.00,246.00 M 471.00,266.00 L 471.00,287.00 L 451.00,287.00 L 451.00,266.00 M 246.00,123.00 L 266.00,123.00 L 266.00,164.00 L 287.00,164.00 L 287.00,205.00 L 266.00,205.00 L 266.00,164.00 L 246.00,164.00 L 246.00,123.00 L 225.00,123.00 L 225.00,82.00 L 246.00,82.00 Z" fill="rgba(239,236,149,1)"/>
<path d="M 143.00,379.00 L 143.00,369.00 L 153.50,369.00 L 164.00,369.00 L 164.00,358.50 L 164.00,348.00 L 174.00,348.00 L 184.00,348.00 L 184.00,338.00 L 184.00,328.00 L 174.00,328.00 L 164.00,328.00 L 164.00,317.50 L 164.00,307.00 L 153.50,307.00 L 143.00,307.00 L 143.00,297.00 L 143.00,287.00 L 153.50,287.00 L 164.00,287.00 L 164.00,297.00 L 164.00,307.00 L 174.00,307.00 L 184.00,307.00 L 184.00,317.50 L 184.00,328.00 L 194.50,328.00 L 205.00,328.00 L 205.00,338.00 L 205.00,348.00 L 194.50,348.00 L 184.00,348.00 L 184.00,358.50 L 184.00,369.00 L 174.00,369.00 L 164.00,369.00 L 164.00,379.00 L 164.00,389.00 L 153.50,389.00 L 143.00,389.00 L 143.00,379.00 M 82.00,358.50 L 82.00,348.00 L 71.50,348.00 L 61.00,348.00 L 61.00,338.00 L 61.00,328.00 L 51.00,328.00 L 41.00,328.00 L 41.00,317.50 L 41.00,307.00 L 51.00,307.00 L 61.00,307.00 L 61.00,297.00 L 61.00,287.00 L 71.50,287.00 L 82.00,287.00 L 82.00,276.50 L 82.00,266.00 L 92.00,266.00 L 102.00,266.00 L 102.00,276.50 L 102.00,287.00 L 92.00,287.00 L 82.00,287.00 L 82.00,297.00 L 82.00,307.00 L 71.50,307.00 L 61.00,307.00 L 61.00,317.50 L 61.00,328.00 L 71.50,328.00 L 82.00,328.00 L 82.00,338.00 L 82.00,348.00 L 92.00,348.00 L 102.00,348.00 L 102.00,358.50 L 102.00,369.00 L 92.00,369.00 L 82.00,369.00 L 82.00,358.50 Z" fill="rgba(255,149,252,1)"/>
</g>
</svg>