<?xml version="1.0" encoding="UTF-8"?>
<svg version="1.1" xmlns="http://www.w3.org/2000/svg" width="512" height="512">
<path d="M0 0 C18.48 0 36.96 0 56 0 C56 6.27 56 12.54 56 19 C68.54 19 81.08 19 94 19 C94 25.27 94 31.54 94 38 C106.54 38 119.08 38 132 38 C132 44.27 132 50.54 132 57 C144.54 57 157.08 57 170 57 C170 63.27 170 69.54 170 76 C182.54 76 195.08 76 208 76 C208 82.27 208 88.54 208 95 C220.54 95 233.08 95 246 95 C246 101.27 246 107.54 246 114 C252.27 114 258.54 114 265 114 C265 207.72 265 301.44 265 398 C258.73 398 252.46 398 246 398 C246 404.27 246 410.54 246 417 C233.46 417 220.92 417 208 417 C208 423.27 208 429.54 208 436 C195.46 436 182.92 436 170 436 C170 442.27 170 448.54 170 455 C157.46 455 144.92 455 132 455 C132 461.27 132 467.54 132 474 C119.46 474 106.92 474 94 474 C94 480.27 94 486.54 94 493 C81.46 493 68.92 493 56 493 C56 499.27 56 505.54 56 512 C37.52 512 19.04 512 0 512 C0 505.73 0 499.46 0 493 C-12.54 493 -25.08 493 -38 493 C-38 486.73 -38 480.46 -38 474 C-50.54 474 -63.08 474 -76 474 C-76 467.73 -76 461.46 -76 455 C-88.54 455 -101.08 455 -114 455 C-114 448.73 -114 442.46 -114 436 C-126.54 436 -139.08 436 -152 436 C-152 429.73 -152 423.46 -152 417 C-164.54 417 -177.08 417 -190 417 C-190 410.73 -190 404.46 -190 398 C-196.27 398 -202.54 398 -209 398 C-209 304.28 -209 210.56 -209 114 C-202.73 114 -196.46 114 -190 114 C-190 107.73 -190 101.46 -190 95 C-177.46 95 -164.92 95 -152 95 C-152 88.73 -152 82.46 -152 76 C-139.46 76 -126.92 76 -114 76 C-114 69.73 -114 63.46 -114 57 C-101.46 57 -88.92 57 -76 57 C-76 50.73 -76 44.46 -76 38 C-63.46 38 -50.92 38 -38 38 C-38 31.73 -38 25.46 -38 19 C-25.46 19 -12.92 19 0 19 C0 12.73 0 6.46 0 0 Z " fill="#364A5E" transform="translate(228,0)"/>
<path d="M0 0 C6.27 0 12.54 0 19 0 C19 12.54 19 25.08 19 38 C31.54 38 44.08 38 57 38 C57 44.27 57 50.54 57 57 C69.54 57 82.08 57 95 57 C95 63.27 95 69.54 95 76 C107.54 76 120.08 76 133 76 C133 82.27 133 88.54 133 95 C145.54 95 158.08 95 171 95 C171 101.27 171 107.54 171 114 C183.54 114 196.08 114 209 114 C209 120.27 209 126.54 209 133 C215.27 133 221.54 133 228 133 C228 214.18 228 295.36 228 379 C240.21 379 252.42 379 265 379 C265 385.27 265 391.54 265 398 C246.52 398 228.04 398 209 398 C209 391.73 209 385.46 209 379 C196.46 379 183.92 379 171 379 C171 372.73 171 366.46 171 360 C158.46 360 145.92 360 133 360 C133 353.73 133 347.46 133 341 C120.46 341 107.92 341 95 341 C95 334.73 95 328.46 95 322 C82.46 322 69.92 322 57 322 C57 315.73 57 309.46 57 303 C44.46 303 31.92 303 19 303 C19 296.73 19 290.46 19 284 C12.73 284 6.46 284 0 284 C0 190.28 0 96.56 0 0 Z " fill="#1F233C" transform="translate(19,114)"/>
<path d="M0 0 C6.27 0 12.54 0 19 0 C19 93.72 19 187.44 19 284 C12.73 284 6.46 284 0 284 C0 290.27 0 296.54 0 303 C-12.54 303 -25.08 303 -38 303 C-38 309.27 -38 315.54 -38 322 C-50.54 322 -63.08 322 -76 322 C-76 328.27 -76 334.54 -76 341 C-88.54 341 -101.08 341 -114 341 C-114 347.27 -114 353.54 -114 360 C-126.54 360 -139.08 360 -152 360 C-152 366.27 -152 372.54 -152 379 C-170.81 379 -189.62 379 -209 379 C-209 297.82 -209 216.64 -209 133 C-202.73 133 -196.46 133 -190 133 C-190 126.73 -190 120.46 -190 114 C-177.46 114 -164.92 114 -152 114 C-152 107.73 -152 101.46 -152 95 C-139.46 95 -126.92 95 -114 95 C-114 88.73 -114 82.46 -114 76 C-101.46 76 -88.92 76 -76 76 C-76 69.73 -76 63.46 -76 57 C-63.46 57 -50.92 57 -38 57 C-38 50.73 -38 44.46 -38 38 C-25.46 38 -12.92 38 0 38 C0 25.46 0 12.92 0 0 Z " fill="#29314C" transform="translate(474,114)"/>
<path d="M0 0 C18.48 0 36.96 0 56 0 C56 6.27 56 12.54 56 19 C49.73 19 43.46 19 37 19 C37 100.18 37 181.36 37 265 C31.06 265 25.12 265 19 265 C19 183.82 19 102.64 19 19 C12.73 19 6.46 19 0 19 C0 12.73 0 6.46 0 0 Z " fill="#64888B" transform="translate(228,228)"/>
<path d="M0 0 C6.27 0 12.54 0 19 0 C19 93.72 19 187.44 19 284 C12.73 284 6.46 284 0 284 C0 190.28 0 96.56 0 0 Z " fill="#222034" transform="translate(474,114)"/>
<path d="M0 0 C6.27 0 12.54 0 19 0 C19 93.72 19 187.44 19 284 C12.73 284 6.46 284 0 284 C0 190.28 0 96.56 0 0 Z " fill="#222034" transform="translate(19,114)"/>
<path d="M0 0 C18.81 0 37.62 0 57 0 C57 6.27 57 12.54 57 19 C50.73 19 44.46 19 38 19 C38 56.62 38 94.24 38 133 C19.19 133 0.38 133 -19 133 C-19 120.46 -19 107.92 -19 95 C-12.73 95 -6.46 95 0 95 C0 101.27 0 107.54 0 114 C6.27 114 12.54 114 19 114 C19 82.65 19 51.3 19 19 C12.73 19 6.46 19 0 19 C0 12.73 0 6.46 0 0 Z " fill="#FFE695" transform="translate(303,265)"/>
<path d="M0 0 C18.48 0 36.96 0 56 0 C56 6.27 56 12.54 56 19 C37.52 19 19.04 19 0 19 C0 12.73 0 6.46 0 0 Z " fill="#222034" transform="translate(228,493)"/>
<path d="M0 0 C18.48 0 36.96 0 56 0 C56 6.27 56 12.54 56 19 C37.52 19 19.04 19 0 19 C0 12.73 0 6.46 0 0 Z " fill="#222034" transform="translate(228,0)"/>
<path d="M0 0 C12.54 0 25.08 0 38 0 C38 6.27 38 12.54 38 19 C25.46 19 12.92 19 0 19 C0 12.73 0 6.46 0 0 Z " fill="#222034" transform="translate(284,474)"/>
<path d="M0 0 C12.54 0 25.08 0 38 0 C38 6.27 38 12.54 38 19 C25.46 19 12.92 19 0 19 C0 12.73 0 6.46 0 0 Z " fill="#222034" transform="translate(190,474)"/>
<path d="M0 0 C12.54 0 25.08 0 38 0 C38 6.27 38 12.54 38 19 C25.46 19 12.92 19 0 19 C0 12.73 0 6.46 0 0 Z " fill="#222034" transform="translate(322,455)"/>
<path d="M0 0 C12.54 0 25.08 0 38 0 C38 6.27 38 12.54 38 19 C25.46 19 12.92 19 0 19 C0 12.73 0 6.46 0 0 Z " fill="#222034" transform="translate(152,455)"/>
<path d="M0 0 C12.54 0 25.08 0 38 0 C38 6.27 38 12.54 38 19 C25.46 19 12.92 19 0 19 C0 12.73 0 6.46 0 0 Z " fill="#222034" transform="translate(360,436)"/>
<path d="M0 0 C12.54 0 25.08 0 38 0 C38 6.27 38 12.54 38 19 C25.46 19 12.92 19 0 19 C0 12.73 0 6.46 0 0 Z " fill="#222034" transform="translate(114,436)"/>
<path d="M0 0 C12.54 0 25.08 0 38 0 C38 6.27 38 12.54 38 19 C25.46 19 12.92 19 0 19 C0 12.73 0 6.46 0 0 Z " fill="#222034" transform="translate(398,417)"/>
<path d="M0 0 C12.54 0 25.08 0 38 0 C38 6.27 38 12.54 38 19 C25.46 19 12.92 19 0 19 C0 12.73 0 6.46 0 0 Z " fill="#222034" transform="translate(76,417)"/>
<path d="M0 0 C12.54 0 25.08 0 38 0 C38 6.27 38 12.54 38 19 C25.46 19 12.92 19 0 19 C0 12.73 0 6.46 0 0 Z " fill="#222034" transform="translate(436,398)"/>
<path d="M0 0 C12.54 0 25.08 0 38 0 C38 6.27 38 12.54 38 19 C25.46 19 12.92 19 0 19 C0 12.73 0 6.46 0 0 Z " fill="#222034" transform="translate(38,398)"/>
<path d="M0 0 C12.54 0 25.08 0 38 0 C38 6.27 38 12.54 38 19 C25.46 19 12.92 19 0 19 C0 12.73 0 6.46 0 0 Z " fill="#FFE695" transform="translate(398,341)"/>
<path d="M0 0 C6.27 0 12.54 0 19 0 C19 12.54 19 25.08 19 38 C12.73 38 6.46 38 0 38 C0 25.46 0 12.92 0 0 Z " fill="#FFE695" transform="translate(436,303)"/>
<path d="M0 0 C12.54 0 25.08 0 38 0 C38 6.27 38 12.54 38 19 C25.46 19 12.92 19 0 19 C0 12.73 0 6.46 0 0 Z " fill="#FFE695" transform="translate(398,284)"/>
<path d="M0 0 C12.54 0 25.08 0 38 0 C38 6.27 38 12.54 38 19 C25.46 19 12.92 19 0 19 C0 12.73 0 6.46 0 0 Z " fill="#FFE695" transform="translate(398,228)"/>
<path d="M0 0 C12.54 0 25.08 0 38 0 C38 6.27 38 12.54 38 19 C25.46 19 12.92 19 0 19 C0 12.73 0 6.46 0 0 Z " fill="#64888B" transform="translate(284,209)"/>
<path d="M0 0 C12.54 0 25.08 0 38 0 C38 6.27 38 12.54 38 19 C25.46 19 12.92 19 0 19 C0 12.73 0 6.46 0 0 Z " fill="#64888B" transform="translate(190,209)"/>
<path d="M0 0 C12.54 0 25.08 0 38 0 C38 6.27 38 12.54 38 19 C25.46 19 12.92 19 0 19 C0 12.73 0 6.46 0 0 Z " fill="#64888B" transform="translate(322,190)"/>
<path d="M0 0 C12.54 0 25.08 0 38 0 C38 6.27 38 12.54 38 19 C25.46 19 12.92 19 0 19 C0 12.73 0 6.46 0 0 Z " fill="#64888B" transform="translate(152,190)"/>
<path d="M0 0 C12.54 0 25.08 0 38 0 C38 6.27 38 12.54 38 19 C25.46 19 12.92 19 0 19 C0 12.73 0 6.46 0 0 Z " fill="#64888B" transform="translate(360,171)"/>
<path d="M0 0 C12.54 0 25.08 0 38 0 C38 6.27 38 12.54 38 19 C25.46 19 12.92 19 0 19 C0 12.73 0 6.46 0 0 Z " fill="#64888B" transform="translate(114,171)"/>
<path d="M0 0 C12.54 0 25.08 0 38 0 C38 6.27 38 12.54 38 19 C25.46 19 12.92 19 0 19 C0 12.73 0 6.46 0 0 Z " fill="#64888B" transform="translate(398,152)"/>
<path d="M0 0 C6.27 0 12.54 0 19 0 C19 12.54 19 25.08 19 38 C12.73 38 6.46 38 0 38 C0 25.46 0 12.92 0 0 Z " fill="#C1FF95" transform="translate(265,152)"/>
<path d="M0 0 C12.54 0 25.08 0 38 0 C38 6.27 38 12.54 38 19 C25.46 19 12.92 19 0 19 C0 12.73 0 6.46 0 0 Z " fill="#64888B" transform="translate(76,152)"/>
<path d="M0 0 C12.54 0 25.08 0 38 0 C38 6.27 38 12.54 38 19 C25.46 19 12.92 19 0 19 C0 12.73 0 6.46 0 0 Z " fill="#64888B" transform="translate(436,133)"/>
<path d="M0 0 C12.54 0 25.08 0 38 0 C38 6.27 38 12.54 38 19 C25.46 19 12.92 19 0 19 C0 12.73 0 6.46 0 0 Z " fill="#64888B" transform="translate(38,133)"/>
<path d="M0 0 C12.54 0 25.08 0 38 0 C38 6.27 38 12.54 38 19 C25.46 19 12.92 19 0 19 C0 12.73 0 6.46 0 0 Z " fill="#222034" transform="translate(436,95)"/>
<path d="M0 0 C12.54 0 25.08 0 38 0 C38 6.27 38 12.54 38 19 C25.46 19 12.92 19 0 19 C0 12.73 0 6.46 0 0 Z " fill="#222034" transform="translate(38,95)"/>
<path d="M0 0 C12.54 0 25.08 0 38 0 C38 6.27 38 12.54 38 19 C25.46 19 12.92 19 0 19 C0 12.73 0 6.46 0 0 Z " fill="#222034" transform="translate(398,76)"/>
<path d="M0 0 C6.27 0 12.54 0 19 0 C19 12.54 19 25.08 19 38 C12.73 38 6.46 38 0 38 C0 25.46 0 12.92 0 0 Z " fill="#C1FF95" transform="translate(228,76)"/>
<path d="M0 0 C12.54 0 25.08 0 38 0 C38 6.27 38 12.54 38 19 C25.46 19 12.92 19 0 19 C0 12.73 0 6.46 0 0 Z " fill="#222034" transform="translate(76,76)"/>
<path d="M0 0 C12.54 0 25.08 0 38 0 C38 6.27 38 12.54 38 19 C25.46 19 12.92 19 0 19 C0 12.73 0 6.46 0 0 Z " fill="#222034" transform="translate(360,57)"/>
<path d="M0 0 C12.54 0 25.08 0 38 0 C38 6.27 38 12.54 38 19 C25.46 19 12.92 19 0 19 C0 12.73 0 6.46 0 0 Z " fill="#222034" transform="translate(114,57)"/>
<path d="M0 0 C12.54 0 25.08 0 38 0 C38 6.27 38 12.54 38 19 C25.46 19 12.92 19 0 19 C0 12.73 0 6.46 0 0 Z " fill="#222034" transform="translate(322,38)"/>
<path d="M0 0 C12.54 0 25.08 0 38 0 C38 6.27 38 12.54 38 19 C25.46 19 12.92 19 0 19 C0 12.73 0 6.46 0 0 Z " fill="#222034" transform="translate(152,38)"/>
<path d="M0 0 C12.54 0 25.08 0 38 0 C38 6.27 38 12.54 38 19 C25.46 19 12.92 19 0 19 C0 12.73 0 6.46 0 0 Z " fill="#222034" transform="translate(284,19)"/>
<path d="M0 0 C12.54 0 25.08 0 38 0 C38 6.27 38 12.54 38 19 C25.46 19 12.92 19 0 19 C0 12.73 0 6.46 0 0 Z " fill="#222034" transform="translate(190,19)"/>
<path d="M0 0 C6.27 0 12.54 0 19 0 C19 12.21 19 24.42 19 37 C12.73 37 6.46 37 0 37 C0 24.79 0 12.58 0 0 Z " fill="#FFE695" transform="translate(379,247)"/>
<path d="M0 0 C5.94 0 11.88 0 18 0 C18 12.54 18 25.08 18 38 C12.06 38 6.12 38 0 38 C0 25.46 0 12.92 0 0 Z " fill="#C1FF95" transform="translate(247,114)"/>
<path d="M0 0 C6.27 0 12.54 0 19 0 C19 6.27 19 12.54 19 19 C12.73 19 6.46 19 0 19 C0 12.73 0 6.46 0 0 Z " fill="#FF95FC" transform="translate(152,360)"/>
<path d="M0 0 C6.27 0 12.54 0 19 0 C19 6.27 19 12.54 19 19 C12.73 19 6.46 19 0 19 C0 12.73 0 6.46 0 0 Z " fill="#FF95FC" transform="translate(171,341)"/>
<path d="M0 0 C6.27 0 12.54 0 19 0 C19 6.27 19 12.54 19 19 C12.73 19 6.46 19 0 19 C0 12.73 0 6.46 0 0 Z " fill="#FFE695" transform="translate(379,322)"/>
<path d="M0 0 C6.27 0 12.54 0 19 0 C19 6.27 19 12.54 19 19 C12.73 19 6.46 19 0 19 C0 12.73 0 6.46 0 0 Z " fill="#FF95FC" transform="translate(190,322)"/>
<path d="M0 0 C6.27 0 12.54 0 19 0 C19 6.27 19 12.54 19 19 C12.73 19 6.46 19 0 19 C0 12.73 0 6.46 0 0 Z " fill="#FF95FC" transform="translate(95,322)"/>
<path d="M0 0 C6.27 0 12.54 0 19 0 C19 6.27 19 12.54 19 19 C12.73 19 6.46 19 0 19 C0 12.73 0 6.46 0 0 Z " fill="#FF95FC" transform="translate(171,303)"/>
<path d="M0 0 C6.27 0 12.54 0 19 0 C19 6.27 19 12.54 19 19 C12.73 19 6.46 19 0 19 C0 12.73 0 6.46 0 0 Z " fill="#FF95FC" transform="translate(76,303)"/>
<path d="M0 0 C6.27 0 12.54 0 19 0 C19 6.27 19 12.54 19 19 C12.73 19 6.46 19 0 19 C0 12.73 0 6.46 0 0 Z " fill="#FF95FC" transform="translate(152,284)"/>
<path d="M0 0 C6.27 0 12.54 0 19 0 C19 6.27 19 12.54 19 19 C12.73 19 6.46 19 0 19 C0 12.73 0 6.46 0 0 Z " fill="#FF95FC" transform="translate(57,284)"/>
<path d="M0 0 C6.27 0 12.54 0 19 0 C19 6.27 19 12.54 19 19 C12.73 19 6.46 19 0 19 C0 12.73 0 6.46 0 0 Z " fill="#FF95FC" transform="translate(76,265)"/>
<path d="M0 0 C6.27 0 12.54 0 19 0 C19 5.94 19 11.88 19 18 C12.73 18 6.46 18 0 18 C0 12.06 0 6.12 0 0 Z " fill="#FFE695" transform="translate(436,247)"/>
<path d="M0 0 C6.27 0 12.54 0 19 0 C19 5.94 19 11.88 19 18 C12.73 18 6.46 18 0 18 C0 12.06 0 6.12 0 0 Z " fill="#FF95FC" transform="translate(95,247)"/>
</svg>
